<svg width="23" height="26" viewBox="0 0 23 26" fill="none" xmlns="http://www.w3.org/2000/svg">
<path d="M20.9312 5.69378L15.6812 0.443781C15.6422 0.401748 15.5947 0.368356 15.542 0.345752C15.4893 0.323147 15.4324 0.311831 15.375 0.312531H2.62625C2.17907 0.31483 1.75087 0.493489 1.43466 0.809694C1.11846 1.1259 0.939799 1.55411 0.9375 2.00128V10.375C0.9375 10.4911 0.983594 10.6023 1.06564 10.6844C1.14769 10.7664 1.25897 10.8125 1.375 10.8125C1.49103 10.8125 1.60231 10.7664 1.68436 10.6844C1.76641 10.6023 1.8125 10.4911 1.8125 10.375V2.00128C1.8125 1.78546 1.89823 1.57848 2.05084 1.42587C2.20345 1.27326 2.41043 1.18753 2.62625 1.18753H14.9375V6.00003C14.9375 6.11606 14.9836 6.22734 15.0656 6.30939C15.1477 6.39144 15.259 6.43753 15.375 6.43753H20.1875V23.9988C20.1875 24.2146 20.1018 24.4216 19.9491 24.5742C19.7965 24.7268 19.5896 24.8125 19.3737 24.8125H2.62625C2.41043 24.8125 2.20345 24.7268 2.05084 24.5742C1.89823 24.4216 1.8125 24.2146 1.8125 23.9988V21.75C1.8125 21.634 1.76641 21.5227 1.68436 21.4407C1.60231 21.3586 1.49103 21.3125 1.375 21.3125C1.25897 21.3125 1.14769 21.3586 1.06564 21.4407C0.983594 21.5227 0.9375 21.634 0.9375 21.75V23.9988C0.939799 24.446 1.11846 24.8742 1.43466 25.1904C1.75087 25.5066 2.17907 25.6852 2.62625 25.6875H19.3737C19.8209 25.6852 20.2491 25.5066 20.5653 25.1904C20.8815 24.8742 21.0602 24.446 21.0625 23.9988V6.00003C21.0632 5.94265 21.0519 5.88576 21.0293 5.83302C21.0067 5.78027 20.9733 5.73285 20.9312 5.69378V5.69378ZM15.8125 1.80878L19.5662 5.56253H15.8125V1.80878Z" fill="#222222"/>
<path d="M18.5625 19.02V13.105C18.5637 12.9185 18.5278 12.7336 18.457 12.5611C18.3862 12.3886 18.2818 12.2319 18.1499 12.1001C18.0181 11.9682 17.8614 11.8638 17.6889 11.793C17.5163 11.7222 17.3315 11.6863 17.145 11.6875H1.60503C1.41855 11.6863 1.23371 11.7222 1.0612 11.793C0.888698 11.8638 0.731972 11.9682 0.600113 12.1001C0.468254 12.2319 0.363886 12.3886 0.293062 12.5611C0.222237 12.7336 0.186365 12.9185 0.187527 13.105V19.02C0.186365 19.2064 0.222237 19.3913 0.293062 19.5638C0.363886 19.7363 0.468254 19.893 0.600113 20.0249C0.731972 20.1567 0.888698 20.2611 1.0612 20.3319C1.23371 20.4028 1.41855 20.4386 1.60503 20.4375H17.145C17.3315 20.4386 17.5163 20.4028 17.6889 20.3319C17.8614 20.2611 18.0181 20.1567 18.1499 20.0249C18.2818 19.893 18.3862 19.7363 18.457 19.5638C18.5278 19.3913 18.5637 19.2064 18.5625 19.02ZM6.13753 16.6225C5.6979 16.9117 5.17479 17.0471 4.65003 17.0075H3.83628V18.3462H3.06628V13.7787H4.63253C5.16878 13.7302 5.70492 13.8728 6.14628 14.1812C6.31509 14.3348 6.44631 14.5252 6.52976 14.7376C6.61321 14.95 6.64666 15.1788 6.62753 15.4062C6.64555 15.633 6.61068 15.861 6.52565 16.072C6.44062 16.2831 6.30776 16.4715 6.13753 16.6225ZM11.0113 17.725C10.463 18.1779 9.76039 18.4006 9.05128 18.3462H7.53753V13.7787H9.10378C9.78479 13.7337 10.4574 13.9495 10.985 14.3825C11.2094 14.5932 11.3852 14.8503 11.5 15.136C11.6149 15.4216 11.6661 15.7288 11.65 16.0362C11.665 16.3465 11.616 16.6564 11.5061 16.947C11.3962 17.2375 11.2278 17.5023 11.0113 17.725ZM15.675 14.4962H13.4088V15.7562H15.43V16.5H13.4088V18.3812H12.6388V13.7787H15.6838L15.675 14.4962Z" fill="#222222"/>
</svg>
