<svg width="472" height="71" viewBox="0 0 472 71" fill="none" xmlns="http://www.w3.org/2000/svg">
<path d="M79.364 18.716C79.812 18.796 80.192 19.032 80.504 19.424C80.816 19.816 80.972 20.26 80.972 20.756C80.972 21.18 80.86 21.564 80.636 21.908C80.42 22.244 80.104 22.512 79.688 22.712C79.272 22.904 78.788 23 78.236 23H74.9V14.66H78.08C78.648 14.66 79.136 14.756 79.544 14.948C79.952 15.14 80.26 15.4 80.468 15.728C80.676 16.048 80.78 16.408 80.78 16.808C80.78 17.288 80.652 17.688 80.396 18.008C80.14 18.328 79.796 18.564 79.364 18.716ZM76.268 18.164H77.96C78.408 18.164 78.756 18.064 79.004 17.864C79.26 17.656 79.388 17.36 79.388 16.976C79.388 16.6 79.26 16.308 79.004 16.1C78.756 15.884 78.408 15.776 77.96 15.776H76.268V18.164ZM78.116 21.884C78.58 21.884 78.944 21.772 79.208 21.548C79.472 21.324 79.604 21.012 79.604 20.612C79.604 20.204 79.464 19.88 79.184 19.64C78.904 19.4 78.532 19.28 78.068 19.28H76.268V21.884H78.116ZM83.8266 17.348C84.0266 17.012 84.2906 16.752 84.6186 16.568C84.9546 16.376 85.3506 16.28 85.8066 16.28V17.696H85.4586C84.9226 17.696 84.5146 17.832 84.2346 18.104C83.9626 18.376 83.8266 18.848 83.8266 19.52V23H82.4586V16.388H83.8266V17.348ZM87.7601 15.512C87.5121 15.512 87.3041 15.428 87.1361 15.26C86.9681 15.092 86.8841 14.884 86.8841 14.636C86.8841 14.388 86.9681 14.18 87.1361 14.012C87.3041 13.844 87.5121 13.76 87.7601 13.76C88.0001 13.76 88.2041 13.844 88.3721 14.012C88.5401 14.18 88.6241 14.388 88.6241 14.636C88.6241 14.884 88.5401 15.092 88.3721 15.26C88.2041 15.428 88.0001 15.512 87.7601 15.512ZM88.4321 16.388V23H87.0641V16.388H88.4321ZM91.8241 17.504V21.164C91.8241 21.412 91.8801 21.592 91.9921 21.704C92.1121 21.808 92.3121 21.86 92.5921 21.86H93.4321V23H92.3521C91.7361 23 91.2641 22.856 90.9361 22.568C90.6081 22.28 90.4441 21.812 90.4441 21.164V17.504H89.6641V16.388H90.4441V14.744H91.8241V16.388H93.4321V17.504H91.8241ZM95.389 15.512C95.141 15.512 94.933 15.428 94.765 15.26C94.597 15.092 94.513 14.884 94.513 14.636C94.513 14.388 94.597 14.18 94.765 14.012C94.933 13.844 95.141 13.76 95.389 13.76C95.629 13.76 95.833 13.844 96.001 14.012C96.169 14.18 96.253 14.388 96.253 14.636C96.253 14.884 96.169 15.092 96.001 15.26C95.833 15.428 95.629 15.512 95.389 15.512ZM96.061 16.388V23H94.693V16.388H96.061ZM100.257 23.108C99.737 23.108 99.269 23.016 98.853 22.832C98.445 22.64 98.121 22.384 97.881 22.064C97.641 21.736 97.513 21.372 97.497 20.972H98.913C98.937 21.252 99.069 21.488 99.309 21.68C99.557 21.864 99.865 21.956 100.233 21.956C100.617 21.956 100.913 21.884 101.121 21.74C101.337 21.588 101.445 21.396 101.445 21.164C101.445 20.916 101.325 20.732 101.085 20.612C100.853 20.492 100.481 20.36 99.969 20.216C99.473 20.08 99.069 19.948 98.757 19.82C98.445 19.692 98.173 19.496 97.941 19.232C97.717 18.968 97.605 18.62 97.605 18.188C97.605 17.836 97.709 17.516 97.917 17.228C98.125 16.932 98.421 16.7 98.805 16.532C99.197 16.364 99.645 16.28 100.149 16.28C100.901 16.28 101.505 16.472 101.961 16.856C102.425 17.232 102.673 17.748 102.705 18.404H101.337C101.313 18.108 101.193 17.872 100.977 17.696C100.761 17.52 100.469 17.432 100.101 17.432C99.741 17.432 99.465 17.5 99.273 17.636C99.081 17.772 98.985 17.952 98.985 18.176C98.985 18.352 99.049 18.5 99.177 18.62C99.305 18.74 99.461 18.836 99.645 18.908C99.829 18.972 100.101 19.056 100.461 19.16C100.941 19.288 101.333 19.42 101.637 19.556C101.949 19.684 102.217 19.876 102.441 20.132C102.665 20.388 102.781 20.728 102.789 21.152C102.789 21.528 102.685 21.864 102.477 22.16C102.269 22.456 101.973 22.688 101.589 22.856C101.213 23.024 100.769 23.108 100.257 23.108ZM107.687 16.28C108.191 16.28 108.639 16.388 109.031 16.604C109.431 16.82 109.743 17.14 109.967 17.564C110.199 17.988 110.315 18.5 110.315 19.1V23H108.959V19.304C108.959 18.712 108.811 18.26 108.515 17.948C108.219 17.628 107.815 17.468 107.303 17.468C106.791 17.468 106.383 17.628 106.079 17.948C105.783 18.26 105.635 18.712 105.635 19.304V23H104.267V14.12H105.635V17.156C105.867 16.876 106.159 16.66 106.511 16.508C106.871 16.356 107.263 16.28 107.687 16.28Z" fill="#666666"/>
<circle cx="37" cy="35" r="20" fill="#999999"/>
<path d="M33.7036 40.6286V28.3714C33.7036 28.0096 34.1118 27.7981 34.4068 28.0059L43.1053 34.1345C43.3576 34.3126 43.3576 34.6874 43.1053 34.8655L34.4087 40.9941C34.1118 41.202 33.7036 40.9904 33.7036 40.6286Z" fill="white"/>
<path d="M33.9819 40.6286C33.9819 40.4152 33.9819 40.2 33.9819 39.9866C33.9819 39.4318 33.9819 38.8771 33.9819 38.3204C33.9819 37.556 33.9819 36.7897 33.9819 36.0252C33.9819 35.181 33.9819 34.3367 33.9819 33.4925C33.9819 32.7002 33.9819 31.9079 33.9819 31.1156C33.9819 30.507 33.9819 29.8966 33.9819 29.288C33.9819 28.993 33.98 28.6961 33.9819 28.4011C33.9819 28.3937 33.9819 28.3844 33.9819 28.377C33.9819 28.3751 33.9819 28.3732 33.9819 28.3732C33.9819 28.3658 33.9819 28.3547 33.9819 28.3491C33.9838 28.2953 33.9838 28.3436 33.98 28.3547C33.9856 28.3324 33.9912 28.312 33.9986 28.2898C33.98 28.3454 34.0079 28.2805 34.0209 28.2601C34.0153 28.2712 33.9819 28.299 34.0172 28.2675C34.0264 28.2582 34.0376 28.2471 34.0468 28.2378C34.0802 28.2025 34.0487 28.2378 34.0394 28.2434C34.0506 28.2378 34.0635 28.2285 34.0747 28.2211C34.1118 28.1951 34.0765 28.2192 34.0654 28.223C34.0858 28.2155 34.1044 28.21 34.1248 28.2044C34.1712 28.1896 34.1248 28.2044 34.1136 28.2044C34.1266 28.2044 34.1415 28.2044 34.1563 28.2025C34.2027 28.1988 34.16 28.2007 34.147 28.1988C34.1619 28.2007 34.1749 28.2044 34.1897 28.2081C34.2046 28.2118 34.2175 28.2174 34.2324 28.2211C34.1767 28.2007 34.225 28.2192 34.238 28.2285C34.2472 28.2359 34.2584 28.2415 34.2676 28.2489C34.3252 28.2879 34.3827 28.3306 34.4402 28.3695C34.815 28.633 35.188 28.8965 35.5628 29.16C36.1639 29.5849 36.767 30.0079 37.3681 30.4328C38.0528 30.9152 38.7393 31.3977 39.424 31.8819C40.0586 32.3291 40.6931 32.7763 41.3277 33.2234C41.7619 33.5296 42.1961 33.8339 42.6284 34.14C42.7286 34.2106 42.8288 34.2811 42.929 34.3516C42.9383 34.359 42.9475 34.3646 42.9568 34.372C42.9809 34.3905 42.9364 34.3479 42.9568 34.3738C42.9661 34.3868 42.9791 34.3961 42.9902 34.4072C43.018 34.4369 42.9698 34.372 42.9883 34.4072C42.9958 34.4202 43.0032 34.4351 43.0106 34.4481C43.0273 34.4759 43.0106 34.4147 43.0069 34.4443C43.005 34.4573 43.018 34.4852 43.0199 34.4982C43.018 34.4852 43.0199 34.4425 43.0162 34.4907C43.0162 34.5056 43.0162 34.5204 43.0143 34.5353C43.0143 34.4982 43.018 34.5056 43.0106 34.539C43.0088 34.5482 42.9958 34.5928 43.0069 34.5594C43.0199 34.5186 42.9921 34.5872 42.9921 34.5872C42.9883 34.5965 42.9624 34.6299 42.9958 34.5872C42.9865 34.6002 42.9735 34.6095 42.9642 34.6225C42.9401 34.6522 42.9605 34.628 42.9624 34.6262C42.7546 34.7876 42.53 34.9305 42.3148 35.0826C41.8046 35.4426 41.2925 35.8025 40.7822 36.1625C40.1179 36.6301 39.4537 37.0995 38.7894 37.5671C38.1122 38.044 37.4368 38.5208 36.7595 38.9958C36.2122 39.3817 35.6667 39.7658 35.1193 40.1518C34.8447 40.3447 34.5701 40.5396 34.2936 40.7325C34.2862 40.7381 34.2769 40.7437 34.2695 40.7492C34.2676 40.7511 34.2658 40.7511 34.2639 40.7529C34.2565 40.7566 34.1823 40.7993 34.2157 40.7845C34.2435 40.7715 34.1656 40.7956 34.1545 40.7993C34.1211 40.8105 34.2157 40.8049 34.1545 40.7975C34.1415 40.7956 34.1248 40.7956 34.1118 40.7956C34.1229 40.7956 34.1712 40.8105 34.1229 40.7956C34.1099 40.7919 34.0951 40.7882 34.0821 40.7845C34.0617 40.7789 34.0487 40.7604 34.0914 40.7882C34.0821 40.7808 34.0654 40.7733 34.0543 40.7678C34.0134 40.7492 34.0487 40.7659 34.0598 40.7752C34.0487 40.7659 34.0394 40.7566 34.0283 40.7474C34.019 40.7381 34.0097 40.727 34.0005 40.7158C34.0394 40.7548 34.0134 40.7362 34.006 40.7214C34.0005 40.7084 33.9912 40.6954 33.9856 40.6843C34.0134 40.7362 33.9912 40.6973 33.9856 40.6787C33.9838 40.6694 33.9708 40.6231 33.9782 40.6602C33.993 40.7047 33.9819 40.6323 33.9819 40.6286C33.9782 40.4839 33.8557 40.3429 33.7036 40.3503C33.5551 40.3577 33.4216 40.4728 33.4253 40.6286C33.4345 40.9719 33.672 41.2836 34.019 41.3411C34.2083 41.3727 34.3975 41.3374 34.5571 41.2279C34.6369 41.1723 34.7167 41.1166 34.7965 41.0591C35.2121 40.7659 35.6277 40.4728 36.0433 40.1815C36.6742 39.738 37.305 39.2927 37.9341 38.8492C38.6354 38.3557 39.3349 37.8621 40.0363 37.3686C40.6542 36.9325 41.272 36.4983 41.8899 36.0623C42.2796 35.7877 42.6692 35.5131 43.0589 35.2385C43.1201 35.1958 43.1832 35.1513 43.2444 35.1086C43.5042 34.9212 43.6415 34.6002 43.5394 34.2848C43.4838 34.1141 43.3743 33.9898 43.2314 33.8877C42.9735 33.704 42.7137 33.524 42.4558 33.3403C41.9103 32.9563 41.3648 32.5722 40.8193 32.1881C40.1346 31.7057 39.45 31.2232 38.7672 30.7427C38.0899 30.2658 37.4127 29.789 36.7354 29.3103C36.2159 28.9447 35.6982 28.5792 35.1787 28.2137C34.969 28.0652 34.7612 27.9112 34.5478 27.7684C34.2676 27.581 33.8984 27.6255 33.6535 27.8463C33.5013 27.9817 33.429 28.1821 33.4253 28.3825C33.4234 28.4642 33.4253 28.5458 33.4253 28.6274C33.4253 29.0746 33.4253 29.5236 33.4253 29.9708C33.4253 30.687 33.4253 31.4051 33.4253 32.1213C33.4253 32.9674 33.4253 33.8153 33.4253 34.6614C33.4253 35.5001 33.4253 36.3388 33.4253 37.1756C33.4253 37.8658 33.4253 38.5542 33.4253 39.2444C33.4253 39.6526 33.4253 40.0608 33.4253 40.469C33.4253 40.5229 33.4253 40.5785 33.4253 40.6323C33.4253 40.7771 33.5533 40.9181 33.7036 40.9107C33.8557 40.8995 33.9819 40.7845 33.9819 40.6286Z" fill="white"/>
<path d="M89.4421 33.4564H93.5579V33.7716H89.4421V33.4564Z" fill="#999999"/>
<path d="M89.4421 34.402H93.5579V35.0323H89.4421V34.402Z" fill="#999999"/>
<path d="M89.4421 35.6627H93.5579V36.6083H89.4421V35.6627Z" fill="#999999"/>
<path d="M89.4421 37.2387H93.5579V38.4994H89.4421V37.2387Z" fill="#999999"/>
<path d="M89.4421 39.1298H93.5579V40.7058H89.4421V39.1298Z" fill="#999999"/>
<path d="M89.4421 41.3361H93.5579V42.9121H89.4421V41.3361Z" fill="#999999"/>
<path d="M89.4421 43.5424H93.5579V45.1184H89.4421V43.5424Z" fill="#999999"/>
<path d="M89.4421 45.7488H93.5579V47.3247H89.4421V45.7488Z" fill="#999999"/>
<path d="M89.4421 47.9551H93.5579V49.531H89.4421V47.9551Z" fill="#999999"/>
<path d="M89.4421 50.1614H93.5579V51.7374H89.4421V50.1614Z" fill="#999999"/>
<path d="M89.4421 52.3677H93.5579V53.9437H89.4421V52.3677Z" fill="#999999"/>
<path d="M89.4421 54.5741H93.5579V56.15H89.4421V54.5741Z" fill="#999999"/>
<path d="M108.15 44.488H104.034V44.8032H108.15V44.488Z" fill="#999999"/>
<path d="M108.15 45.4336H104.034V46.064H108.15V45.4336Z" fill="#999999"/>
<path d="M108.15 46.6943H104.034V47.6399H108.15V46.6943Z" fill="#999999"/>
<path d="M108.15 48.2703H104.034V49.531H108.15V48.2703Z" fill="#999999"/>
<path d="M108.15 50.1614H104.034V51.7374H108.15V50.1614Z" fill="#999999"/>
<path d="M108.15 52.3677H104.034V53.9437H108.15V52.3677Z" fill="#999999"/>
<path d="M108.15 54.5741H104.034V56.15H108.15V54.5741Z" fill="#999999"/>
<path d="M94.3062 42.2817H98.4219V42.5969H94.3062V42.2817Z" fill="#999999"/>
<path d="M94.3062 43.2272H98.4219V43.8576H94.3062V43.2272Z" fill="#999999"/>
<path d="M94.3062 44.488H98.4219V45.4336H94.3062V44.488Z" fill="#999999"/>
<path d="M94.3062 46.064H98.4219V47.3247H94.3062V46.064Z" fill="#999999"/>
<path d="M94.3062 47.9551H98.4219V49.531H94.3062V47.9551Z" fill="#999999"/>
<path d="M94.3062 50.1614H98.4219V51.7374H94.3062V50.1614Z" fill="#999999"/>
<path d="M94.3062 52.3677H98.4219V53.9437H94.3062V52.3677Z" fill="#999999"/>
<path d="M94.3062 54.5741H98.4219V56.15H94.3062V54.5741Z" fill="#999999"/>
<path d="M99.1702 40.0754H103.286V40.3906H99.1702V40.0754Z" fill="#999999"/>
<path d="M99.1702 41.0209H103.286V41.6513H99.1702V41.0209Z" fill="#999999"/>
<path d="M99.1702 42.2817H103.286V43.2273H99.1702V42.2817Z" fill="#999999"/>
<path d="M99.1702 43.8576H103.286V45.1184H99.1702V43.8576Z" fill="#999999"/>
<path d="M99.1702 45.7488H103.286V47.3247H99.1702V45.7488Z" fill="#999999"/>
<path d="M99.1702 47.9551H103.286V49.531H99.1702V47.9551Z" fill="#999999"/>
<path d="M99.1702 50.1614H103.286V51.7374H99.1702V50.1614Z" fill="#999999"/>
<path d="M99.1702 52.3677H103.286V53.9437H99.1702V52.3677Z" fill="#999999"/>
<path d="M99.1702 54.5741H103.286V56.15H99.1702V54.5741Z" fill="#999999"/>
<path d="M88.6939 37.869H84.5781V38.1842H88.6939V37.869Z" fill="#999999"/>
<path d="M88.6939 38.8146H84.5781V39.445H88.6939V38.8146Z" fill="#999999"/>
<path d="M88.6939 40.0754H84.5781V41.0209H88.6939V40.0754Z" fill="#999999"/>
<path d="M88.6939 41.6513H84.5781V42.9121H88.6939V41.6513Z" fill="#999999"/>
<path d="M88.6939 43.5424H84.5781V45.1184H88.6939V43.5424Z" fill="#999999"/>
<path d="M88.6939 45.7488H84.5781V47.3247H88.6939V45.7488Z" fill="#999999"/>
<path d="M88.6939 47.9551H84.5781V49.531H88.6939V47.9551Z" fill="#999999"/>
<path d="M88.6939 50.1614H84.5781V51.7374H88.6939V50.1614Z" fill="#999999"/>
<path d="M88.6939 52.3677H84.5781V53.9437H88.6939V52.3677Z" fill="#999999"/>
<path d="M88.6939 54.5741H84.5781V56.15H88.6939V54.5741Z" fill="#999999"/>
<path d="M79.7141 42.2817H83.8298V42.5969H79.7141V42.2817Z" fill="#999999"/>
<path d="M79.7141 43.2272H83.8298V43.8576H79.7141V43.2272Z" fill="#999999"/>
<path d="M79.7141 44.488H83.8298V45.4336H79.7141V44.488Z" fill="#999999"/>
<path d="M79.7141 46.064H83.8298V47.3247H79.7141V46.064Z" fill="#999999"/>
<path d="M79.7141 47.9551H83.8298V49.531H79.7141V47.9551Z" fill="#999999"/>
<path d="M79.7141 50.1614H83.8298V51.7374H79.7141V50.1614Z" fill="#999999"/>
<path d="M79.7141 52.3677H83.8298V53.9437H79.7141V52.3677Z" fill="#999999"/>
<path d="M79.7141 54.5741H83.8298V56.15H79.7141V54.5741Z" fill="#999999"/>
<path d="M74.85 40.0754H78.9657V40.3906H74.85V40.0754Z" fill="#999999"/>
<path d="M74.85 41.0209H78.9657V41.6513H74.85V41.0209Z" fill="#999999"/>
<path d="M74.85 42.2817H78.9657V43.2273H74.85V42.2817Z" fill="#999999"/>
<path d="M74.85 43.8576H78.9657V45.1184H74.85V43.8576Z" fill="#999999"/>
<path d="M74.85 45.7488H78.9657V47.3247H74.85V45.7488Z" fill="#999999"/>
<path d="M74.85 47.9551H78.9657V49.531H74.85V47.9551Z" fill="#999999"/>
<path d="M74.85 50.1614H78.9657V51.7374H74.85V50.1614Z" fill="#999999"/>
<path d="M74.85 52.3677H78.9657V53.9437H74.85V52.3677Z" fill="#999999"/>
<path d="M74.85 54.5741H78.9657V56.15H74.85V54.5741Z" fill="#999999"/>
<path d="M123.442 33.4564H127.558V33.7716H123.442V33.4564Z" fill="#999999"/>
<path d="M123.442 34.402H127.558V35.0323H123.442V34.402Z" fill="#999999"/>
<path d="M123.442 35.6627H127.558V36.6083H123.442V35.6627Z" fill="#999999"/>
<path d="M123.442 37.2387H127.558V38.4994H123.442V37.2387Z" fill="#999999"/>
<path d="M123.442 39.1298H127.558V40.7058H123.442V39.1298Z" fill="#999999"/>
<path d="M123.442 41.3361H127.558V42.9121H123.442V41.3361Z" fill="#999999"/>
<path d="M123.442 43.5424H127.558V45.1184H123.442V43.5424Z" fill="#999999"/>
<path d="M123.442 45.7488H127.558V47.3247H123.442V45.7488Z" fill="#999999"/>
<path d="M123.442 47.9551H127.558V49.531H123.442V47.9551Z" fill="#999999"/>
<path d="M123.442 50.1614H127.558V51.7374H123.442V50.1614Z" fill="#999999"/>
<path d="M123.442 52.3677H127.558V53.9437H123.442V52.3677Z" fill="#999999"/>
<path d="M123.442 54.5741H127.558V56.15H123.442V54.5741Z" fill="#999999"/>
<path d="M142.15 44.488H138.034V44.8032H142.15V44.488Z" fill="#999999"/>
<path d="M142.15 45.4336H138.034V46.064H142.15V45.4336Z" fill="#999999"/>
<path d="M142.15 46.6943H138.034V47.6399H142.15V46.6943Z" fill="#999999"/>
<path d="M142.15 48.2703H138.034V49.531H142.15V48.2703Z" fill="#999999"/>
<path d="M142.15 50.1614H138.034V51.7374H142.15V50.1614Z" fill="#999999"/>
<path d="M142.15 52.3677H138.034V53.9437H142.15V52.3677Z" fill="#999999"/>
<path d="M142.15 54.5741H138.034V56.15H142.15V54.5741Z" fill="#999999"/>
<path d="M128.306 42.2817H132.422V42.5969H128.306V42.2817Z" fill="#999999"/>
<path d="M128.306 43.2272H132.422V43.8576H128.306V43.2272Z" fill="#999999"/>
<path d="M128.306 44.488H132.422V45.4336H128.306V44.488Z" fill="#999999"/>
<path d="M128.306 46.064H132.422V47.3247H128.306V46.064Z" fill="#999999"/>
<path d="M128.306 47.9551H132.422V49.531H128.306V47.9551Z" fill="#999999"/>
<path d="M128.306 50.1614H132.422V51.7374H128.306V50.1614Z" fill="#999999"/>
<path d="M128.306 52.3677H132.422V53.9437H128.306V52.3677Z" fill="#999999"/>
<path d="M128.306 54.5741H132.422V56.15H128.306V54.5741Z" fill="#999999"/>
<path d="M133.17 40.0754H137.286V40.3906H133.17V40.0754Z" fill="#999999"/>
<path d="M133.17 41.0209H137.286V41.6513H133.17V41.0209Z" fill="#999999"/>
<path d="M133.17 42.2817H137.286V43.2273H133.17V42.2817Z" fill="#999999"/>
<path d="M133.17 43.8576H137.286V45.1184H133.17V43.8576Z" fill="#999999"/>
<path d="M133.17 45.7488H137.286V47.3247H133.17V45.7488Z" fill="#999999"/>
<path d="M133.17 47.9551H137.286V49.531H133.17V47.9551Z" fill="#999999"/>
<path d="M133.17 50.1614H137.286V51.7374H133.17V50.1614Z" fill="#999999"/>
<path d="M133.17 52.3677H137.286V53.9437H133.17V52.3677Z" fill="#999999"/>
<path d="M133.17 54.5741H137.286V56.15H133.17V54.5741Z" fill="#999999"/>
<path d="M122.694 37.869H118.578V38.1842H122.694V37.869Z" fill="#999999"/>
<path d="M122.694 38.8146H118.578V39.445H122.694V38.8146Z" fill="#999999"/>
<path d="M122.694 40.0754H118.578V41.0209H122.694V40.0754Z" fill="#999999"/>
<path d="M122.694 41.6513H118.578V42.9121H122.694V41.6513Z" fill="#999999"/>
<path d="M122.694 43.5424H118.578V45.1184H122.694V43.5424Z" fill="#999999"/>
<path d="M122.694 45.7488H118.578V47.3247H122.694V45.7488Z" fill="#999999"/>
<path d="M122.694 47.9551H118.578V49.531H122.694V47.9551Z" fill="#999999"/>
<path d="M122.694 50.1614H118.578V51.7374H122.694V50.1614Z" fill="#999999"/>
<path d="M122.694 52.3677H118.578V53.9437H122.694V52.3677Z" fill="#999999"/>
<path d="M122.694 54.5741H118.578V56.15H122.694V54.5741Z" fill="#999999"/>
<path d="M113.714 42.2817H117.83V42.5969H113.714V42.2817Z" fill="#999999"/>
<path d="M113.714 43.2272H117.83V43.8576H113.714V43.2272Z" fill="#999999"/>
<path d="M113.714 44.488H117.83V45.4336H113.714V44.488Z" fill="#999999"/>
<path d="M113.714 46.064H117.83V47.3247H113.714V46.064Z" fill="#999999"/>
<path d="M113.714 47.9551H117.83V49.531H113.714V47.9551Z" fill="#999999"/>
<path d="M113.714 50.1614H117.83V51.7374H113.714V50.1614Z" fill="#999999"/>
<path d="M113.714 52.3677H117.83V53.9437H113.714V52.3677Z" fill="#999999"/>
<path d="M113.714 54.5741H117.83V56.15H113.714V54.5741Z" fill="#999999"/>
<path d="M108.85 40.0754H112.966V40.3906H108.85V40.0754Z" fill="#999999"/>
<path d="M108.85 41.0209H112.966V41.6513H108.85V41.0209Z" fill="#999999"/>
<path d="M108.85 42.2817H112.966V43.2273H108.85V42.2817Z" fill="#999999"/>
<path d="M108.85 43.8576H112.966V45.1184H108.85V43.8576Z" fill="#999999"/>
<path d="M108.85 45.7488H112.966V47.3247H108.85V45.7488Z" fill="#999999"/>
<path d="M108.85 47.9551H112.966V49.531H108.85V47.9551Z" fill="#999999"/>
<path d="M108.85 50.1614H112.966V51.7374H108.85V50.1614Z" fill="#999999"/>
<path d="M108.85 52.3677H112.966V53.9437H108.85V52.3677Z" fill="#999999"/>
<path d="M108.85 54.5741H112.966V56.15H108.85V54.5741Z" fill="#999999"/>
<path d="M161.558 33.4564H157.442V33.7716H161.558V33.4564Z" fill="#999999"/>
<path d="M161.558 34.402H157.442V35.0323H161.558V34.402Z" fill="#999999"/>
<path d="M161.558 35.6627H157.442V36.6083H161.558V35.6627Z" fill="#999999"/>
<path d="M161.558 37.2387H157.442V38.4994H161.558V37.2387Z" fill="#999999"/>
<path d="M161.558 39.1298H157.442V40.7058H161.558V39.1298Z" fill="#999999"/>
<path d="M161.558 41.3361H157.442V42.9121H161.558V41.3361Z" fill="#999999"/>
<path d="M161.558 43.5424H157.442V45.1184H161.558V43.5424Z" fill="#999999"/>
<path d="M161.558 45.7488H157.442V47.3247H161.558V45.7488Z" fill="#999999"/>
<path d="M161.558 47.9551H157.442V49.531H161.558V47.9551Z" fill="#999999"/>
<path d="M161.558 50.1614H157.442V51.7374H161.558V50.1614Z" fill="#999999"/>
<path d="M161.558 52.3677H157.442V53.9437H161.558V52.3677Z" fill="#999999"/>
<path d="M161.558 54.5741H157.442V56.15H161.558V54.5741Z" fill="#999999"/>
<path d="M142.85 44.488H146.966V44.8032H142.85V44.488Z" fill="#999999"/>
<path d="M142.85 45.4336H146.966V46.064H142.85V45.4336Z" fill="#999999"/>
<path d="M142.85 46.6943H146.966V47.6399H142.85V46.6943Z" fill="#999999"/>
<path d="M142.85 48.2703H146.966V49.531H142.85V48.2703Z" fill="#999999"/>
<path d="M142.85 50.1614H146.966V51.7374H142.85V50.1614Z" fill="#999999"/>
<path d="M142.85 52.3677H146.966V53.9437H142.85V52.3677Z" fill="#999999"/>
<path d="M142.85 54.5741H146.966V56.15H142.85V54.5741Z" fill="#999999"/>
<path d="M156.694 42.2817H152.578V42.5969H156.694V42.2817Z" fill="#999999"/>
<path d="M156.694 43.2272H152.578V43.8576H156.694V43.2272Z" fill="#999999"/>
<path d="M156.694 44.488H152.578V45.4336H156.694V44.488Z" fill="#999999"/>
<path d="M156.694 46.064H152.578V47.3247H156.694V46.064Z" fill="#999999"/>
<path d="M156.694 47.9551H152.578V49.531H156.694V47.9551Z" fill="#999999"/>
<path d="M156.694 50.1614H152.578V51.7374H156.694V50.1614Z" fill="#999999"/>
<path d="M156.694 52.3677H152.578V53.9437H156.694V52.3677Z" fill="#999999"/>
<path d="M156.694 54.5741H152.578V56.15H156.694V54.5741Z" fill="#999999"/>
<path d="M151.83 40.0754H147.714V40.3906H151.83V40.0754Z" fill="#999999"/>
<path d="M151.83 41.0209H147.714V41.6513H151.83V41.0209Z" fill="#999999"/>
<path d="M151.83 42.2817H147.714V43.2273H151.83V42.2817Z" fill="#999999"/>
<path d="M151.83 43.8576H147.714V45.1184H151.83V43.8576Z" fill="#999999"/>
<path d="M151.83 45.7488H147.714V47.3247H151.83V45.7488Z" fill="#999999"/>
<path d="M151.83 47.9551H147.714V49.531H151.83V47.9551Z" fill="#999999"/>
<path d="M151.83 50.1614H147.714V51.7374H151.83V50.1614Z" fill="#999999"/>
<path d="M151.83 52.3677H147.714V53.9437H151.83V52.3677Z" fill="#999999"/>
<path d="M151.83 54.5741H147.714V56.15H151.83V54.5741Z" fill="#999999"/>
<path d="M162.306 37.869H166.422V38.1842H162.306V37.869Z" fill="#999999"/>
<path d="M162.306 38.8146H166.422V39.445H162.306V38.8146Z" fill="#999999"/>
<path d="M162.306 40.0754H166.422V41.0209H162.306V40.0754Z" fill="#999999"/>
<path d="M162.306 41.6513H166.422V42.9121H162.306V41.6513Z" fill="#999999"/>
<path d="M162.306 43.5424H166.422V45.1184H162.306V43.5424Z" fill="#999999"/>
<path d="M162.306 45.7488H166.422V47.3247H162.306V45.7488Z" fill="#999999"/>
<path d="M162.306 47.9551H166.422V49.531H162.306V47.9551Z" fill="#999999"/>
<path d="M162.306 50.1614H166.422V51.7374H162.306V50.1614Z" fill="#999999"/>
<path d="M162.306 52.3677H166.422V53.9437H162.306V52.3677Z" fill="#999999"/>
<path d="M162.306 54.5741H166.422V56.15H162.306V54.5741Z" fill="#999999"/>
<path d="M171.286 42.2817H167.17V42.5969H171.286V42.2817Z" fill="#999999"/>
<path d="M171.286 43.2272H167.17V43.8576H171.286V43.2272Z" fill="#999999"/>
<path d="M171.286 44.488H167.17V45.4336H171.286V44.488Z" fill="#999999"/>
<path d="M171.286 46.064H167.17V47.3247H171.286V46.064Z" fill="#999999"/>
<path d="M171.286 47.9551H167.17V49.531H171.286V47.9551Z" fill="#999999"/>
<path d="M171.286 50.1614H167.17V51.7374H171.286V50.1614Z" fill="#999999"/>
<path d="M171.286 52.3677H167.17V53.9437H171.286V52.3677Z" fill="#999999"/>
<path d="M171.286 54.5741H167.17V56.15H171.286V54.5741Z" fill="#999999"/>
<path d="M176.15 40.0754H172.034V40.3906H176.15V40.0754Z" fill="#999999"/>
<path d="M176.15 41.0209H172.034V41.6513H176.15V41.0209Z" fill="#999999"/>
<path d="M176.15 42.2817H172.034V43.2273H176.15V42.2817Z" fill="#999999"/>
<path d="M176.15 43.8576H172.034V45.1184H176.15V43.8576Z" fill="#999999"/>
<path d="M176.15 45.7488H172.034V47.3247H176.15V45.7488Z" fill="#999999"/>
<path d="M176.15 47.9551H172.034V49.531H176.15V47.9551Z" fill="#999999"/>
<path d="M176.15 50.1614H172.034V51.7374H176.15V50.1614Z" fill="#999999"/>
<path d="M176.15 52.3677H172.034V53.9437H176.15V52.3677Z" fill="#999999"/>
<path d="M176.15 54.5741H172.034V56.15H176.15V54.5741Z" fill="#999999"/>
<path d="M191.442 33.4564H195.558V33.7716H191.442V33.4564Z" fill="#999999"/>
<path d="M191.442 34.402H195.558V35.0323H191.442V34.402Z" fill="#999999"/>
<path d="M191.442 35.6627H195.558V36.6083H191.442V35.6627Z" fill="#999999"/>
<path d="M191.442 37.2387H195.558V38.4994H191.442V37.2387Z" fill="#999999"/>
<path d="M191.442 39.1298H195.558V40.7058H191.442V39.1298Z" fill="#999999"/>
<path d="M191.442 41.3361H195.558V42.9121H191.442V41.3361Z" fill="#999999"/>
<path d="M191.442 43.5424H195.558V45.1184H191.442V43.5424Z" fill="#999999"/>
<path d="M191.442 45.7488H195.558V47.3247H191.442V45.7488Z" fill="#999999"/>
<path d="M191.442 47.9551H195.558V49.531H191.442V47.9551Z" fill="#999999"/>
<path d="M191.442 50.1614H195.558V51.7374H191.442V50.1614Z" fill="#999999"/>
<path d="M191.442 52.3677H195.558V53.9437H191.442V52.3677Z" fill="#999999"/>
<path d="M191.442 54.5741H195.558V56.15H191.442V54.5741Z" fill="#999999"/>
<path d="M210.15 44.488H206.034V44.8032H210.15V44.488Z" fill="#999999"/>
<path d="M210.15 45.4336H206.034V46.064H210.15V45.4336Z" fill="#999999"/>
<path d="M210.15 46.6943H206.034V47.6399H210.15V46.6943Z" fill="#999999"/>
<path d="M210.15 48.2703H206.034V49.531H210.15V48.2703Z" fill="#999999"/>
<path d="M210.15 50.1614H206.034V51.7374H210.15V50.1614Z" fill="#999999"/>
<path d="M210.15 52.3677H206.034V53.9437H210.15V52.3677Z" fill="#999999"/>
<path d="M210.15 54.5741H206.034V56.15H210.15V54.5741Z" fill="#999999"/>
<path d="M196.306 42.2817H200.422V42.5969H196.306V42.2817Z" fill="#999999"/>
<path d="M196.306 43.2272H200.422V43.8576H196.306V43.2272Z" fill="#999999"/>
<path d="M196.306 44.488H200.422V45.4336H196.306V44.488Z" fill="#999999"/>
<path d="M196.306 46.064H200.422V47.3247H196.306V46.064Z" fill="#999999"/>
<path d="M196.306 47.9551H200.422V49.531H196.306V47.9551Z" fill="#999999"/>
<path d="M196.306 50.1614H200.422V51.7374H196.306V50.1614Z" fill="#999999"/>
<path d="M200.422 52.3677H196.306V53.9437H200.422V52.3677Z" fill="#999999"/>
<path d="M196.306 54.5741H200.422V56.15H196.306V54.5741Z" fill="#999999"/>
<path d="M201.17 40.0754H205.286V40.3906H201.17V40.0754Z" fill="#999999"/>
<path d="M201.17 41.0209H205.286V41.6513H201.17V41.0209Z" fill="#999999"/>
<path d="M201.17 42.2817H205.286V43.2273H201.17V42.2817Z" fill="#999999"/>
<path d="M201.17 43.8576H205.286V45.1184H201.17V43.8576Z" fill="#999999"/>
<path d="M201.17 45.7488H205.286V47.3247H201.17V45.7488Z" fill="#999999"/>
<path d="M201.17 47.9551H205.286V49.531H201.17V47.9551Z" fill="#999999"/>
<path d="M201.17 50.1614H205.286V51.7374H201.17V50.1614Z" fill="#999999"/>
<path d="M201.17 52.3677H205.286V53.9437H201.17V52.3677Z" fill="#999999"/>
<path d="M201.17 54.5741H205.286V56.15H201.17V54.5741Z" fill="#999999"/>
<path d="M190.694 37.869H186.578V38.1842H190.694V37.869Z" fill="#999999"/>
<path d="M190.694 38.8146H186.578V39.445H190.694V38.8146Z" fill="#999999"/>
<path d="M190.694 40.0754H186.578V41.0209H190.694V40.0754Z" fill="#999999"/>
<path d="M190.694 41.6513H186.578V42.9121H190.694V41.6513Z" fill="#999999"/>
<path d="M190.694 43.5424H186.578V45.1184H190.694V43.5424Z" fill="#999999"/>
<path d="M190.694 45.7488H186.578V47.3247H190.694V45.7488Z" fill="#999999"/>
<path d="M190.694 47.9551H186.578V49.531H190.694V47.9551Z" fill="#999999"/>
<path d="M190.694 50.1614H186.578V51.7374H190.694V50.1614Z" fill="#999999"/>
<path d="M190.694 52.3677H186.578V53.9437H190.694V52.3677Z" fill="#999999"/>
<path d="M190.694 54.5741H186.578V56.15H190.694V54.5741Z" fill="#999999"/>
<path d="M181.714 42.2817H185.83V42.5969H181.714V42.2817Z" fill="#999999"/>
<path d="M181.714 43.2272H185.83V43.8576H181.714V43.2272Z" fill="#999999"/>
<path d="M181.714 44.488H185.83V45.4336H181.714V44.488Z" fill="#999999"/>
<path d="M181.714 46.064H185.83V47.3247H181.714V46.064Z" fill="#999999"/>
<path d="M181.714 47.9551H185.83V49.531H181.714V47.9551Z" fill="#999999"/>
<path d="M181.714 50.1614H185.83V51.7374H181.714V50.1614Z" fill="#999999"/>
<path d="M181.714 52.3677H185.83V53.9437H181.714V52.3677Z" fill="#999999"/>
<path d="M181.714 54.5741H185.83V56.15H181.714V54.5741Z" fill="#999999"/>
<path d="M176.85 40.0754H180.966V40.3906H176.85V40.0754Z" fill="#999999"/>
<path d="M176.85 41.0209H180.966V41.6513H176.85V41.0209Z" fill="#999999"/>
<path d="M176.85 42.2817H180.966V43.2273H176.85V42.2817Z" fill="#999999"/>
<path d="M176.85 43.8576H180.966V45.1184H176.85V43.8576Z" fill="#999999"/>
<path d="M176.85 45.7488H180.966V47.3247H176.85V45.7488Z" fill="#999999"/>
<path d="M176.85 47.9551H180.966V49.531H176.85V47.9551Z" fill="#999999"/>
<path d="M176.85 50.1614H180.966V51.7374H176.85V50.1614Z" fill="#999999"/>
<path d="M176.85 52.3677H180.966V53.9437H176.85V52.3677Z" fill="#999999"/>
<path d="M176.85 54.5741H180.966V56.15H176.85V54.5741Z" fill="#999999"/>
<path d="M225.442 33.4564H229.558V33.7716H225.442V33.4564Z" fill="#999999"/>
<path d="M225.442 34.402H229.558V35.0323H225.442V34.402Z" fill="#999999"/>
<path d="M225.442 35.6627H229.558V36.6083H225.442V35.6627Z" fill="#999999"/>
<path d="M225.442 37.2387H229.558V38.4994H225.442V37.2387Z" fill="#999999"/>
<path d="M225.442 39.1298H229.558V40.7058H225.442V39.1298Z" fill="#999999"/>
<path d="M225.442 41.3361H229.558V42.9121H225.442V41.3361Z" fill="#999999"/>
<path d="M225.442 43.5424H229.558V45.1184H225.442V43.5424Z" fill="#999999"/>
<path d="M225.442 45.7488H229.558V47.3247H225.442V45.7488Z" fill="#999999"/>
<path d="M225.442 47.9551H229.558V49.531H225.442V47.9551Z" fill="#999999"/>
<path d="M225.442 50.1614H229.558V51.7374H225.442V50.1614Z" fill="#999999"/>
<path d="M225.442 52.3677H229.558V53.9437H225.442V52.3677Z" fill="#999999"/>
<path d="M225.442 54.5741H229.558V56.15H225.442V54.5741Z" fill="#999999"/>
<path d="M244.15 44.488H240.034V44.8032H244.15V44.488Z" fill="#999999"/>
<path d="M244.15 45.4336H240.034V46.064H244.15V45.4336Z" fill="#999999"/>
<path d="M244.15 46.6943H240.034V47.6399H244.15V46.6943Z" fill="#999999"/>
<path d="M244.15 48.2703H240.034V49.531H244.15V48.2703Z" fill="#999999"/>
<path d="M244.15 50.1614H240.034V51.7374H244.15V50.1614Z" fill="#999999"/>
<path d="M244.15 52.3677H240.034V53.9437H244.15V52.3677Z" fill="#999999"/>
<path d="M244.15 54.5741H240.034V56.15H244.15V54.5741Z" fill="#999999"/>
<path d="M230.306 42.2817H234.422V42.5969H230.306V42.2817Z" fill="#999999"/>
<path d="M230.306 43.2272H234.422V43.8576H230.306V43.2272Z" fill="#999999"/>
<path d="M230.306 44.488H234.422V45.4336H230.306V44.488Z" fill="#999999"/>
<path d="M230.306 46.064H234.422V47.3247H230.306V46.064Z" fill="#999999"/>
<path d="M230.306 47.9551H234.422V49.531H230.306V47.9551Z" fill="#999999"/>
<path d="M230.306 50.1614H234.422V51.7374H230.306V50.1614Z" fill="#999999"/>
<path d="M230.306 52.3677H234.422V53.9437H230.306V52.3677Z" fill="#999999"/>
<path d="M230.306 54.5741H234.422V56.15H230.306V54.5741Z" fill="#999999"/>
<path d="M235.17 40.0754H239.286V40.3906H235.17V40.0754Z" fill="#999999"/>
<path d="M235.17 41.0209H239.286V41.6513H235.17V41.0209Z" fill="#999999"/>
<path d="M235.17 42.2817H239.286V43.2273H235.17V42.2817Z" fill="#999999"/>
<path d="M235.17 43.8576H239.286V45.1184H235.17V43.8576Z" fill="#999999"/>
<path d="M235.17 45.7488H239.286V47.3247H235.17V45.7488Z" fill="#999999"/>
<path d="M235.17 47.9551H239.286V49.531H235.17V47.9551Z" fill="#999999"/>
<path d="M235.17 50.1614H239.286V51.7374H235.17V50.1614Z" fill="#999999"/>
<path d="M235.17 52.3677H239.286V53.9437H235.17V52.3677Z" fill="#999999"/>
<path d="M235.17 54.5741H239.286V56.15H235.17V54.5741Z" fill="#999999"/>
<path d="M224.694 37.869H220.578V38.1842H224.694V37.869Z" fill="#999999"/>
<path d="M224.694 38.8146H220.578V39.445H224.694V38.8146Z" fill="#999999"/>
<path d="M224.694 40.0754H220.578V41.0209H224.694V40.0754Z" fill="#999999"/>
<path d="M224.694 41.6513H220.578V42.9121H224.694V41.6513Z" fill="#999999"/>
<path d="M224.694 43.5424H220.578V45.1184H224.694V43.5424Z" fill="#999999"/>
<path d="M224.694 45.7488H220.578V47.3247H224.694V45.7488Z" fill="#999999"/>
<path d="M224.694 47.9551H220.578V49.531H224.694V47.9551Z" fill="#999999"/>
<path d="M224.694 50.1614H220.578V51.7374H224.694V50.1614Z" fill="#999999"/>
<path d="M224.694 52.3677H220.578V53.9437H224.694V52.3677Z" fill="#999999"/>
<path d="M224.694 54.5741H220.578V56.15H224.694V54.5741Z" fill="#999999"/>
<path d="M215.714 42.2817H219.83V42.5969H215.714V42.2817Z" fill="#999999"/>
<path d="M215.714 43.2272H219.83V43.8576H215.714V43.2272Z" fill="#999999"/>
<path d="M215.714 44.488H219.83V45.4336H215.714V44.488Z" fill="#999999"/>
<path d="M215.714 46.064H219.83V47.3247H215.714V46.064Z" fill="#999999"/>
<path d="M215.714 47.9551H219.83V49.531H215.714V47.9551Z" fill="#999999"/>
<path d="M215.714 50.1614H219.83V51.7374H215.714V50.1614Z" fill="#999999"/>
<path d="M215.714 52.3677H219.83V53.9437H215.714V52.3677Z" fill="#999999"/>
<path d="M215.714 54.5741H219.83V56.15H215.714V54.5741Z" fill="#999999"/>
<path d="M210.85 40.0754H214.966V40.3906H210.85V40.0754Z" fill="#999999"/>
<path d="M210.85 41.0209H214.966V41.6513H210.85V41.0209Z" fill="#999999"/>
<path d="M210.85 42.2817H214.966V43.2273H210.85V42.2817Z" fill="#999999"/>
<path d="M210.85 43.8576H214.966V45.1184H210.85V43.8576Z" fill="#999999"/>
<path d="M210.85 45.7488H214.966V47.3247H210.85V45.7488Z" fill="#999999"/>
<path d="M210.85 47.9551H214.966V49.531H210.85V47.9551Z" fill="#999999"/>
<path d="M210.85 50.1614H214.966V51.7374H210.85V50.1614Z" fill="#999999"/>
<path d="M210.85 52.3677H214.966V53.9437H210.85V52.3677Z" fill="#999999"/>
<path d="M210.85 54.5741H214.966V56.15H210.85V54.5741Z" fill="#999999"/>
<path d="M263.558 33.4564H259.442V33.7716H263.558V33.4564Z" fill="#999999"/>
<path d="M263.558 34.402H259.442V35.0323H263.558V34.402Z" fill="#999999"/>
<path d="M263.558 35.6627H259.442V36.6083H263.558V35.6627Z" fill="#999999"/>
<path d="M263.558 37.2387H259.442V38.4994H263.558V37.2387Z" fill="#999999"/>
<path d="M263.558 39.1298H259.442V40.7058H263.558V39.1298Z" fill="#999999"/>
<path d="M263.558 41.3361H259.442V42.9121H263.558V41.3361Z" fill="#999999"/>
<path d="M263.558 43.5424H259.442V45.1184H263.558V43.5424Z" fill="#999999"/>
<path d="M263.558 45.7488H259.442V47.3247H263.558V45.7488Z" fill="#999999"/>
<path d="M263.558 47.9551H259.442V49.531H263.558V47.9551Z" fill="#999999"/>
<path d="M263.558 50.1614H259.442V51.7374H263.558V50.1614Z" fill="#999999"/>
<path d="M263.558 52.3677H259.442V53.9437H263.558V52.3677Z" fill="#999999"/>
<path d="M263.558 54.5741H259.442V56.15H263.558V54.5741Z" fill="#999999"/>
<path d="M244.85 44.488H248.966V44.8032H244.85V44.488Z" fill="#999999"/>
<path d="M244.85 45.4336H248.966V46.064H244.85V45.4336Z" fill="#999999"/>
<path d="M244.85 46.6943H248.966V47.6399H244.85V46.6943Z" fill="#999999"/>
<path d="M244.85 48.2703H248.966V49.531H244.85V48.2703Z" fill="#999999"/>
<path d="M244.85 50.1614H248.966V51.7374H244.85V50.1614Z" fill="#999999"/>
<path d="M244.85 52.3677H248.966V53.9437H244.85V52.3677Z" fill="#999999"/>
<path d="M244.85 54.5741H248.966V56.15H244.85V54.5741Z" fill="#999999"/>
<path d="M258.694 42.2817H254.578V42.5969H258.694V42.2817Z" fill="#999999"/>
<path d="M258.694 43.2272H254.578V43.8576H258.694V43.2272Z" fill="#999999"/>
<path d="M258.694 44.488H254.578V45.4336H258.694V44.488Z" fill="#999999"/>
<path d="M258.694 46.064H254.578V47.3247H258.694V46.064Z" fill="#999999"/>
<path d="M258.694 47.9551H254.578V49.531H258.694V47.9551Z" fill="#999999"/>
<path d="M258.694 50.1614H254.578V51.7374H258.694V50.1614Z" fill="#999999"/>
<path d="M258.694 52.3677H254.578V53.9437H258.694V52.3677Z" fill="#999999"/>
<path d="M258.694 54.5741H254.578V56.15H258.694V54.5741Z" fill="#999999"/>
<path d="M253.83 40.0754H249.714V40.3906H253.83V40.0754Z" fill="#999999"/>
<path d="M253.83 41.0209H249.714V41.6513H253.83V41.0209Z" fill="#999999"/>
<path d="M253.83 42.2817H249.714V43.2273H253.83V42.2817Z" fill="#999999"/>
<path d="M253.83 43.8576H249.714V45.1184H253.83V43.8576Z" fill="#999999"/>
<path d="M253.83 45.7488H249.714V47.3247H253.83V45.7488Z" fill="#999999"/>
<path d="M253.83 47.9551H249.714V49.531H253.83V47.9551Z" fill="#999999"/>
<path d="M253.83 50.1614H249.714V51.7374H253.83V50.1614Z" fill="#999999"/>
<path d="M253.83 52.3677H249.714V53.9437H253.83V52.3677Z" fill="#999999"/>
<path d="M253.83 54.5741H249.714V56.15H253.83V54.5741Z" fill="#999999"/>
<path d="M264.306 37.869H268.422V38.1842H264.306V37.869Z" fill="#999999"/>
<path d="M264.306 38.8146H268.422V39.445H264.306V38.8146Z" fill="#999999"/>
<path d="M264.306 40.0754H268.422V41.0209H264.306V40.0754Z" fill="#999999"/>
<path d="M264.306 41.6513H268.422V42.9121H264.306V41.6513Z" fill="#999999"/>
<path d="M264.306 43.5424H268.422V45.1184H264.306V43.5424Z" fill="#999999"/>
<path d="M264.306 45.7488H268.422V47.3247H264.306V45.7488Z" fill="#999999"/>
<path d="M264.306 47.9551H268.422V49.531H264.306V47.9551Z" fill="#999999"/>
<path d="M264.306 50.1614H268.422V51.7374H264.306V50.1614Z" fill="#999999"/>
<path d="M264.306 52.3677H268.422V53.9437H264.306V52.3677Z" fill="#999999"/>
<path d="M264.306 54.5741H268.422V56.15H264.306V54.5741Z" fill="#999999"/>
<path d="M273.286 42.2817H269.17V42.5969H273.286V42.2817Z" fill="#999999"/>
<path d="M273.286 43.2272H269.17V43.8576H273.286V43.2272Z" fill="#999999"/>
<path d="M273.286 44.488H269.17V45.4336H273.286V44.488Z" fill="#999999"/>
<path d="M273.286 46.064H269.17V47.3247H273.286V46.064Z" fill="#999999"/>
<path d="M273.286 47.9551H269.17V49.531H273.286V47.9551Z" fill="#999999"/>
<path d="M273.286 50.1614H269.17V51.7374H273.286V50.1614Z" fill="#999999"/>
<path d="M273.286 52.3677H269.17V53.9437H273.286V52.3677Z" fill="#999999"/>
<path d="M273.286 54.5741H269.17V56.15H273.286V54.5741Z" fill="#999999"/>
<path d="M278.15 40.0754H274.034V40.3906H278.15V40.0754Z" fill="#999999"/>
<path d="M278.15 41.0209H274.034V41.6513H278.15V41.0209Z" fill="#999999"/>
<path d="M278.15 42.2817H274.034V43.2273H278.15V42.2817Z" fill="#999999"/>
<path d="M278.15 43.8576H274.034V45.1184H278.15V43.8576Z" fill="#999999"/>
<path d="M278.15 45.7488H274.034V47.3247H278.15V45.7488Z" fill="#999999"/>
<path d="M278.15 47.9551H274.034V49.531H278.15V47.9551Z" fill="#999999"/>
<path d="M278.15 50.1614H274.034V51.7374H278.15V50.1614Z" fill="#999999"/>
<path d="M278.15 52.3677H274.034V53.9437H278.15V52.3677Z" fill="#999999"/>
<path d="M278.15 54.5741H274.034V56.15H278.15V54.5741Z" fill="#999999"/>
<path d="M293.442 33.4564H297.558V33.7716H293.442V33.4564Z" fill="#999999"/>
<path d="M293.442 34.402H297.558V35.0323H293.442V34.402Z" fill="#999999"/>
<path d="M293.442 35.6627H297.558V36.6083H293.442V35.6627Z" fill="#999999"/>
<path d="M293.442 37.2387H297.558V38.4994H293.442V37.2387Z" fill="#999999"/>
<path d="M293.442 39.1298H297.558V40.7058H293.442V39.1298Z" fill="#999999"/>
<path d="M293.442 41.3361H297.558V42.9121H293.442V41.3361Z" fill="#999999"/>
<path d="M293.442 43.5424H297.558V45.1184H293.442V43.5424Z" fill="#999999"/>
<path d="M293.442 45.7488H297.558V47.3247H293.442V45.7488Z" fill="#999999"/>
<path d="M293.442 47.9551H297.558V49.531H293.442V47.9551Z" fill="#999999"/>
<path d="M293.442 50.1614H297.558V51.7374H293.442V50.1614Z" fill="#999999"/>
<path d="M293.442 52.3677H297.558V53.9437H293.442V52.3677Z" fill="#999999"/>
<path d="M293.442 54.5741H297.558V56.15H293.442V54.5741Z" fill="#999999"/>
<path d="M312.15 44.488H308.034V44.8032H312.15V44.488Z" fill="#999999"/>
<path d="M312.15 45.4336H308.034V46.064H312.15V45.4336Z" fill="#999999"/>
<path d="M312.15 46.6943H308.034V47.6399H312.15V46.6943Z" fill="#999999"/>
<path d="M312.15 48.2703H308.034V49.531H312.15V48.2703Z" fill="#999999"/>
<path d="M312.15 50.1614H308.034V51.7374H312.15V50.1614Z" fill="#999999"/>
<path d="M312.15 52.3677H308.034V53.9437H312.15V52.3677Z" fill="#999999"/>
<path d="M312.15 54.5741H308.034V56.15H312.15V54.5741Z" fill="#999999"/>
<path d="M298.306 42.2817H302.422V42.5969H298.306V42.2817Z" fill="#999999"/>
<path d="M298.306 43.2272H302.422V43.8576H298.306V43.2272Z" fill="#999999"/>
<path d="M298.306 44.488H302.422V45.4336H298.306V44.488Z" fill="#999999"/>
<path d="M298.306 46.064H302.422V47.3247H298.306V46.064Z" fill="#999999"/>
<path d="M298.306 47.9551H302.422V49.531H298.306V47.9551Z" fill="#999999"/>
<path d="M298.306 50.1614H302.422V51.7374H298.306V50.1614Z" fill="#999999"/>
<path d="M298.306 52.3677H302.422V53.9437H298.306V52.3677Z" fill="#999999"/>
<path d="M298.306 54.5741H302.422V56.15H298.306V54.5741Z" fill="#999999"/>
<path d="M303.17 40.0754H307.286V40.3906H303.17V40.0754Z" fill="#999999"/>
<path d="M303.17 41.0209H307.286V41.6513H303.17V41.0209Z" fill="#999999"/>
<path d="M303.17 42.2817H307.286V43.2273H303.17V42.2817Z" fill="#999999"/>
<path d="M303.17 43.8576H307.286V45.1184H303.17V43.8576Z" fill="#999999"/>
<path d="M303.17 45.7488H307.286V47.3247H303.17V45.7488Z" fill="#999999"/>
<path d="M303.17 47.9551H307.286V49.531H303.17V47.9551Z" fill="#999999"/>
<path d="M303.17 50.1614H307.286V51.7374H303.17V50.1614Z" fill="#999999"/>
<path d="M303.17 52.3677H307.286V53.9437H303.17V52.3677Z" fill="#999999"/>
<path d="M303.17 54.5741H307.286V56.15H303.17V54.5741Z" fill="#999999"/>
<path d="M292.694 37.869H288.578V38.1842H292.694V37.869Z" fill="#999999"/>
<path d="M292.694 38.8146H288.578V39.445H292.694V38.8146Z" fill="#999999"/>
<path d="M292.694 40.0754H288.578V41.0209H292.694V40.0754Z" fill="#999999"/>
<path d="M292.694 41.6513H288.578V42.9121H292.694V41.6513Z" fill="#999999"/>
<path d="M292.694 43.5424H288.578V45.1184H292.694V43.5424Z" fill="#999999"/>
<path d="M292.694 45.7488H288.578V47.3247H292.694V45.7488Z" fill="#999999"/>
<path d="M292.694 47.9551H288.578V49.531H292.694V47.9551Z" fill="#999999"/>
<path d="M292.694 50.1614H288.578V51.7374H292.694V50.1614Z" fill="#999999"/>
<path d="M292.694 52.3677H288.578V53.9437H292.694V52.3677Z" fill="#999999"/>
<path d="M292.694 54.5741H288.578V56.15H292.694V54.5741Z" fill="#999999"/>
<path d="M283.714 42.2817H287.83V42.5969H283.714V42.2817Z" fill="#999999"/>
<path d="M283.714 43.2272H287.83V43.8576H283.714V43.2272Z" fill="#999999"/>
<path d="M283.714 44.488H287.83V45.4336H283.714V44.488Z" fill="#999999"/>
<path d="M283.714 46.064H287.83V47.3247H283.714V46.064Z" fill="#999999"/>
<path d="M283.714 47.9551H287.83V49.531H283.714V47.9551Z" fill="#999999"/>
<path d="M283.714 50.1614H287.83V51.7374H283.714V50.1614Z" fill="#999999"/>
<path d="M283.714 52.3677H287.83V53.9437H283.714V52.3677Z" fill="#999999"/>
<path d="M283.714 54.5741H287.83V56.15H283.714V54.5741Z" fill="#999999"/>
<path d="M278.85 40.0754H282.966V40.3906H278.85V40.0754Z" fill="#999999"/>
<path d="M278.85 41.0209H282.966V41.6513H278.85V41.0209Z" fill="#999999"/>
<path d="M278.85 42.2817H282.966V43.2273H278.85V42.2817Z" fill="#999999"/>
<path d="M278.85 43.8576H282.966V45.1184H278.85V43.8576Z" fill="#999999"/>
<path d="M278.85 45.7488H282.966V47.3247H278.85V45.7488Z" fill="#999999"/>
<path d="M278.85 47.9551H282.966V49.531H278.85V47.9551Z" fill="#999999"/>
<path d="M278.85 50.1614H282.966V51.7374H278.85V50.1614Z" fill="#999999"/>
<path d="M278.85 52.3677H282.966V53.9437H278.85V52.3677Z" fill="#999999"/>
<path d="M278.85 54.5741H282.966V56.15H278.85V54.5741Z" fill="#999999"/>
<path d="M327.442 33.4564H331.558V33.7716H327.442V33.4564Z" fill="#999999"/>
<path d="M327.442 34.402H331.558V35.0323H327.442V34.402Z" fill="#999999"/>
<path d="M327.442 35.6627H331.558V36.6083H327.442V35.6627Z" fill="#999999"/>
<path d="M327.442 37.2387H331.558V38.4994H327.442V37.2387Z" fill="#999999"/>
<path d="M327.442 39.1298H331.558V40.7058H327.442V39.1298Z" fill="#999999"/>
<path d="M327.442 41.3361H331.558V42.9121H327.442V41.3361Z" fill="#999999"/>
<path d="M327.442 43.5424H331.558V45.1184H327.442V43.5424Z" fill="#999999"/>
<path d="M327.442 45.7488H331.558V47.3247H327.442V45.7488Z" fill="#999999"/>
<path d="M327.442 47.9551H331.558V49.531H327.442V47.9551Z" fill="#999999"/>
<path d="M327.442 50.1614H331.558V51.7374H327.442V50.1614Z" fill="#999999"/>
<path d="M327.442 52.3677H331.558V53.9437H327.442V52.3677Z" fill="#999999"/>
<path d="M327.442 54.5741H331.558V56.15H327.442V54.5741Z" fill="#999999"/>
<path d="M346.15 44.488H342.034V44.8032H346.15V44.488Z" fill="#999999"/>
<path d="M346.15 45.4336H342.034V46.064H346.15V45.4336Z" fill="#999999"/>
<path d="M346.15 46.6943H342.034V47.6399H346.15V46.6943Z" fill="#999999"/>
<path d="M346.15 48.2703H342.034V49.531H346.15V48.2703Z" fill="#999999"/>
<path d="M346.15 50.1614H342.034V51.7374H346.15V50.1614Z" fill="#999999"/>
<path d="M346.15 52.3677H342.034V53.9437H346.15V52.3677Z" fill="#999999"/>
<path d="M346.15 54.5741H342.034V56.15H346.15V54.5741Z" fill="#999999"/>
<path d="M332.306 42.2817H336.422V42.5969H332.306V42.2817Z" fill="#999999"/>
<path d="M332.306 43.2272H336.422V43.8576H332.306V43.2272Z" fill="#999999"/>
<path d="M332.306 44.488H336.422V45.4336H332.306V44.488Z" fill="#999999"/>
<path d="M332.306 46.064H336.422V47.3247H332.306V46.064Z" fill="#999999"/>
<path d="M332.306 47.9551H336.422V49.531H332.306V47.9551Z" fill="#999999"/>
<path d="M332.306 50.1614H336.422V51.7374H332.306V50.1614Z" fill="#999999"/>
<path d="M332.306 52.3677H336.422V53.9437H332.306V52.3677Z" fill="#999999"/>
<path d="M332.306 54.5741H336.422V56.15H332.306V54.5741Z" fill="#999999"/>
<path d="M337.17 40.0754H341.286V40.3906H337.17V40.0754Z" fill="#999999"/>
<path d="M337.17 41.0209H341.286V41.6513H337.17V41.0209Z" fill="#999999"/>
<path d="M337.17 42.2817H341.286V43.2273H337.17V42.2817Z" fill="#999999"/>
<path d="M337.17 43.8576H341.286V45.1184H337.17V43.8576Z" fill="#999999"/>
<path d="M337.17 45.7488H341.286V47.3247H337.17V45.7488Z" fill="#999999"/>
<path d="M337.17 47.9551H341.286V49.531H337.17V47.9551Z" fill="#999999"/>
<path d="M337.17 50.1614H341.286V51.7374H337.17V50.1614Z" fill="#999999"/>
<path d="M337.17 52.3677H341.286V53.9437H337.17V52.3677Z" fill="#999999"/>
<path d="M337.17 54.5741H341.286V56.15H337.17V54.5741Z" fill="#999999"/>
<path d="M326.694 37.869H322.578V38.1842H326.694V37.869Z" fill="#999999"/>
<path d="M326.694 38.8146H322.578V39.445H326.694V38.8146Z" fill="#999999"/>
<path d="M326.694 40.0754H322.578V41.0209H326.694V40.0754Z" fill="#999999"/>
<path d="M326.694 41.6513H322.578V42.9121H326.694V41.6513Z" fill="#999999"/>
<path d="M326.694 43.5424H322.578V45.1184H326.694V43.5424Z" fill="#999999"/>
<path d="M326.694 45.7488H322.578V47.3247H326.694V45.7488Z" fill="#999999"/>
<path d="M326.694 47.9551H322.578V49.531H326.694V47.9551Z" fill="#999999"/>
<path d="M326.694 50.1614H322.578V51.7374H326.694V50.1614Z" fill="#999999"/>
<path d="M326.694 52.3677H322.578V53.9437H326.694V52.3677Z" fill="#999999"/>
<path d="M326.694 54.5741H322.578V56.15H326.694V54.5741Z" fill="#999999"/>
<path d="M317.714 42.2817H321.83V42.5969H317.714V42.2817Z" fill="#999999"/>
<path d="M317.714 43.2272H321.83V43.8576H317.714V43.2272Z" fill="#999999"/>
<path d="M317.714 44.488H321.83V45.4336H317.714V44.488Z" fill="#999999"/>
<path d="M317.714 46.064H321.83V47.3247H317.714V46.064Z" fill="#999999"/>
<path d="M317.714 47.9551H321.83V49.531H317.714V47.9551Z" fill="#999999"/>
<path d="M317.714 50.1614H321.83V51.7374H317.714V50.1614Z" fill="#999999"/>
<path d="M317.714 52.3677H321.83V53.9437H317.714V52.3677Z" fill="#999999"/>
<path d="M317.714 54.5741H321.83V56.15H317.714V54.5741Z" fill="#999999"/>
<path d="M312.85 40.0754H316.966V40.3906H312.85V40.0754Z" fill="#999999"/>
<path d="M312.85 41.0209H316.966V41.6513H312.85V41.0209Z" fill="#999999"/>
<path d="M312.85 42.2817H316.966V43.2273H312.85V42.2817Z" fill="#999999"/>
<path d="M312.85 43.8576H316.966V45.1184H312.85V43.8576Z" fill="#999999"/>
<path d="M312.85 45.7488H316.966V47.3247H312.85V45.7488Z" fill="#999999"/>
<path d="M312.85 47.9551H316.966V49.531H312.85V47.9551Z" fill="#999999"/>
<path d="M312.85 50.1614H316.966V51.7374H312.85V50.1614Z" fill="#999999"/>
<path d="M312.85 52.3677H316.966V53.9437H312.85V52.3677Z" fill="#999999"/>
<path d="M312.85 54.5741H316.966V56.15H312.85V54.5741Z" fill="#999999"/>
<path d="M361.442 33.4564H365.558V33.7716H361.442V33.4564Z" fill="#999999"/>
<path d="M361.442 34.402H365.558V35.0323H361.442V34.402Z" fill="#999999"/>
<path d="M361.442 35.6627H365.558V36.6083H361.442V35.6627Z" fill="#999999"/>
<path d="M361.442 37.2387H365.558V38.4994H361.442V37.2387Z" fill="#999999"/>
<path d="M361.442 39.1298H365.558V40.7058H361.442V39.1298Z" fill="#999999"/>
<path d="M361.442 41.3361H365.558V42.9121H361.442V41.3361Z" fill="#999999"/>
<path d="M361.442 43.5424H365.558V45.1184H361.442V43.5424Z" fill="#999999"/>
<path d="M361.442 45.7488H365.558V47.3247H361.442V45.7488Z" fill="#999999"/>
<path d="M361.442 47.9551H365.558V49.531H361.442V47.9551Z" fill="#999999"/>
<path d="M361.442 50.1614H365.558V51.7374H361.442V50.1614Z" fill="#999999"/>
<path d="M361.442 52.3677H365.558V53.9437H361.442V52.3677Z" fill="#999999"/>
<path d="M361.442 54.5741H365.558V56.15H361.442V54.5741Z" fill="#999999"/>
<path d="M380.15 44.488H376.034V44.8032H380.15V44.488Z" fill="#999999"/>
<path d="M380.15 45.4336H376.034V46.064H380.15V45.4336Z" fill="#999999"/>
<path d="M380.15 46.6943H376.034V47.6399H380.15V46.6943Z" fill="#999999"/>
<path d="M380.15 48.2703H376.034V49.531H380.15V48.2703Z" fill="#999999"/>
<path d="M380.15 50.1614H376.034V51.7374H380.15V50.1614Z" fill="#999999"/>
<path d="M380.15 52.3677H376.034V53.9437H380.15V52.3677Z" fill="#999999"/>
<path d="M380.15 54.5741H376.034V56.15H380.15V54.5741Z" fill="#999999"/>
<path d="M366.306 42.2817H370.422V42.5969H366.306V42.2817Z" fill="#999999"/>
<path d="M366.306 43.2272H370.422V43.8576H366.306V43.2272Z" fill="#999999"/>
<path d="M366.306 44.488H370.422V45.4336H366.306V44.488Z" fill="#999999"/>
<path d="M366.306 46.064H370.422V47.3247H366.306V46.064Z" fill="#999999"/>
<path d="M366.306 47.9551H370.422V49.531H366.306V47.9551Z" fill="#999999"/>
<path d="M366.306 50.1614H370.422V51.7374H366.306V50.1614Z" fill="#999999"/>
<path d="M366.306 52.3677H370.422V53.9437H366.306V52.3677Z" fill="#999999"/>
<path d="M366.306 54.5741H370.422V56.15H366.306V54.5741Z" fill="#999999"/>
<path d="M371.17 40.0754H375.286V40.3906H371.17V40.0754Z" fill="#999999"/>
<path d="M371.17 41.0209H375.286V41.6513H371.17V41.0209Z" fill="#999999"/>
<path d="M371.17 42.2817H375.286V43.2273H371.17V42.2817Z" fill="#999999"/>
<path d="M371.17 43.8576H375.286V45.1184H371.17V43.8576Z" fill="#999999"/>
<path d="M371.17 45.7488H375.286V47.3247H371.17V45.7488Z" fill="#999999"/>
<path d="M371.17 47.9551H375.286V49.531H371.17V47.9551Z" fill="#999999"/>
<path d="M371.17 50.1614H375.286V51.7374H371.17V50.1614Z" fill="#999999"/>
<path d="M371.17 52.3677H375.286V53.9437H371.17V52.3677Z" fill="#999999"/>
<path d="M371.17 54.5741H375.286V56.15H371.17V54.5741Z" fill="#999999"/>
<path d="M360.694 37.869H356.578V38.1842H360.694V37.869Z" fill="#999999"/>
<path d="M360.694 38.8146H356.578V39.445H360.694V38.8146Z" fill="#999999"/>
<path d="M360.694 40.0754H356.578V41.0209H360.694V40.0754Z" fill="#999999"/>
<path d="M360.694 41.6513H356.578V42.9121H360.694V41.6513Z" fill="#999999"/>
<path d="M360.694 43.5424H356.578V45.1184H360.694V43.5424Z" fill="#999999"/>
<path d="M360.694 45.7488H356.578V47.3247H360.694V45.7488Z" fill="#999999"/>
<path d="M360.694 47.9551H356.578V49.531H360.694V47.9551Z" fill="#999999"/>
<path d="M360.694 50.1614H356.578V51.7374H360.694V50.1614Z" fill="#999999"/>
<path d="M360.694 52.3677H356.578V53.9437H360.694V52.3677Z" fill="#999999"/>
<path d="M360.694 54.5741H356.578V56.15H360.694V54.5741Z" fill="#999999"/>
<path d="M351.714 42.2817H355.83V42.5969H351.714V42.2817Z" fill="#999999"/>
<path d="M351.714 43.2272H355.83V43.8576H351.714V43.2272Z" fill="#999999"/>
<path d="M351.714 44.488H355.83V45.4336H351.714V44.488Z" fill="#999999"/>
<path d="M351.714 46.064H355.83V47.3247H351.714V46.064Z" fill="#999999"/>
<path d="M351.714 47.9551H355.83V49.531H351.714V47.9551Z" fill="#999999"/>
<path d="M351.714 50.1614H355.83V51.7374H351.714V50.1614Z" fill="#999999"/>
<path d="M351.714 52.3677H355.83V53.9437H351.714V52.3677Z" fill="#999999"/>
<path d="M351.714 54.5741H355.83V56.15H351.714V54.5741Z" fill="#999999"/>
<path d="M346.85 40.0754H350.966V40.3906H346.85V40.0754Z" fill="#999999"/>
<path d="M346.85 41.0209H350.966V41.6513H346.85V41.0209Z" fill="#999999"/>
<path d="M346.85 42.2817H350.966V43.2273H346.85V42.2817Z" fill="#999999"/>
<path d="M346.85 43.8576H350.966V45.1184H346.85V43.8576Z" fill="#999999"/>
<path d="M346.85 45.7488H350.966V47.3247H346.85V45.7488Z" fill="#999999"/>
<path d="M346.85 47.9551H350.966V49.531H346.85V47.9551Z" fill="#999999"/>
<path d="M346.85 50.1614H350.966V51.7374H346.85V50.1614Z" fill="#999999"/>
<path d="M346.85 52.3677H350.966V53.9437H346.85V52.3677Z" fill="#999999"/>
<path d="M346.85 54.5741H350.966V56.15H346.85V54.5741Z" fill="#999999"/>
<path d="M399.558 33.4564H395.442V33.7716H399.558V33.4564Z" fill="#999999"/>
<path d="M399.558 34.402H395.442V35.0323H399.558V34.402Z" fill="#999999"/>
<path d="M399.558 35.6627H395.442V36.6083H399.558V35.6627Z" fill="#999999"/>
<path d="M399.558 37.2387H395.442V38.4994H399.558V37.2387Z" fill="#999999"/>
<path d="M399.558 39.1298H395.442V40.7058H399.558V39.1298Z" fill="#999999"/>
<path d="M399.558 41.3361H395.442V42.9121H399.558V41.3361Z" fill="#999999"/>
<path d="M399.558 43.5424H395.442V45.1184H399.558V43.5424Z" fill="#999999"/>
<path d="M399.558 45.7488H395.442V47.3247H399.558V45.7488Z" fill="#999999"/>
<path d="M399.558 47.9551H395.442V49.531H399.558V47.9551Z" fill="#999999"/>
<path d="M399.558 50.1614H395.442V51.7374H399.558V50.1614Z" fill="#999999"/>
<path d="M399.558 52.3677H395.442V53.9437H399.558V52.3677Z" fill="#999999"/>
<path d="M399.558 54.5741H395.442V56.15H399.558V54.5741Z" fill="#999999"/>
<path d="M380.85 44.488H384.966V44.8032H380.85V44.488Z" fill="#999999"/>
<path d="M380.85 45.4336H384.966V46.064H380.85V45.4336Z" fill="#999999"/>
<path d="M380.85 46.6943H384.966V47.6399H380.85V46.6943Z" fill="#999999"/>
<path d="M380.85 48.2703H384.966V49.531H380.85V48.2703Z" fill="#999999"/>
<path d="M380.85 50.1614H384.966V51.7374H380.85V50.1614Z" fill="#999999"/>
<path d="M380.85 52.3677H384.966V53.9437H380.85V52.3677Z" fill="#999999"/>
<path d="M380.85 54.5741H384.966V56.15H380.85V54.5741Z" fill="#999999"/>
<path d="M394.694 42.2817H390.578V42.5969H394.694V42.2817Z" fill="#999999"/>
<path d="M394.694 43.2272H390.578V43.8576H394.694V43.2272Z" fill="#999999"/>
<path d="M394.694 44.488H390.578V45.4336H394.694V44.488Z" fill="#999999"/>
<path d="M394.694 46.064H390.578V47.3247H394.694V46.064Z" fill="#999999"/>
<path d="M394.694 47.9551H390.578V49.531H394.694V47.9551Z" fill="#999999"/>
<path d="M394.694 50.1614H390.578V51.7374H394.694V50.1614Z" fill="#999999"/>
<path d="M394.694 52.3677H390.578V53.9437H394.694V52.3677Z" fill="#999999"/>
<path d="M394.694 54.5741H390.578V56.15H394.694V54.5741Z" fill="#999999"/>
<path d="M389.83 40.0754H385.714V40.3906H389.83V40.0754Z" fill="#999999"/>
<path d="M389.83 41.0209H385.714V41.6513H389.83V41.0209Z" fill="#999999"/>
<path d="M389.83 42.2817H385.714V43.2273H389.83V42.2817Z" fill="#999999"/>
<path d="M389.83 43.8576H385.714V45.1184H389.83V43.8576Z" fill="#999999"/>
<path d="M389.83 45.7488H385.714V47.3247H389.83V45.7488Z" fill="#999999"/>
<path d="M389.83 47.9551H385.714V49.531H389.83V47.9551Z" fill="#999999"/>
<path d="M389.83 50.1614H385.714V51.7374H389.83V50.1614Z" fill="#999999"/>
<path d="M389.83 52.3677H385.714V53.9437H389.83V52.3677Z" fill="#999999"/>
<path d="M389.83 54.5741H385.714V56.15H389.83V54.5741Z" fill="#999999"/>
<path d="M400.306 37.869H404.422V38.1842H400.306V37.869Z" fill="#999999"/>
<path d="M400.306 38.8146H404.422V39.445H400.306V38.8146Z" fill="#999999"/>
<path d="M400.306 40.0754H404.422V41.0209H400.306V40.0754Z" fill="#999999"/>
<path d="M400.306 41.6513H404.422V42.9121H400.306V41.6513Z" fill="#999999"/>
<path d="M400.306 43.5424H404.422V45.1184H400.306V43.5424Z" fill="#999999"/>
<path d="M400.306 45.7488H404.422V47.3247H400.306V45.7488Z" fill="#999999"/>
<path d="M400.306 47.9551H404.422V49.531H400.306V47.9551Z" fill="#999999"/>
<path d="M400.306 50.1614H404.422V51.7374H400.306V50.1614Z" fill="#999999"/>
<path d="M400.306 52.3677H404.422V53.9437H400.306V52.3677Z" fill="#999999"/>
<path d="M400.306 54.5741H404.422V56.15H400.306V54.5741Z" fill="#999999"/>
<path d="M409.286 42.2817H405.17V42.5969H409.286V42.2817Z" fill="#999999"/>
<path d="M409.286 43.2272H405.17V43.8576H409.286V43.2272Z" fill="#999999"/>
<path d="M409.286 44.488H405.17V45.4336H409.286V44.488Z" fill="#999999"/>
<path d="M409.286 46.064H405.17V47.3247H409.286V46.064Z" fill="#999999"/>
<path d="M409.286 47.9551H405.17V49.531H409.286V47.9551Z" fill="#999999"/>
<path d="M409.286 50.1614H405.17V51.7374H409.286V50.1614Z" fill="#999999"/>
<path d="M409.286 52.3677H405.17V53.9437H409.286V52.3677Z" fill="#999999"/>
<path d="M409.286 54.5741H405.17V56.15H409.286V54.5741Z" fill="#999999"/>
<path d="M414.15 40.0754H410.034V40.3906H414.15V40.0754Z" fill="#999999"/>
<path d="M414.15 41.0209H410.034V41.6513H414.15V41.0209Z" fill="#999999"/>
<path d="M414.15 42.2817H410.034V43.2273H414.15V42.2817Z" fill="#999999"/>
<path d="M414.15 43.8576H410.034V45.1184H414.15V43.8576Z" fill="#999999"/>
<path d="M414.15 45.7488H410.034V47.3247H414.15V45.7488Z" fill="#999999"/>
<path d="M414.15 47.9551H410.034V49.531H414.15V47.9551Z" fill="#999999"/>
<path d="M414.15 50.1614H410.034V51.7374H414.15V50.1614Z" fill="#999999"/>
<path d="M414.15 52.3677H410.034V53.9437H414.15V52.3677Z" fill="#999999"/>
<path d="M414.15 54.5741H410.034V56.15H414.15V54.5741Z" fill="#999999"/>
<path d="M433.558 33.4564H429.442V33.7716H433.558V33.4564Z" fill="#999999"/>
<path d="M433.558 34.402H429.442V35.0323H433.558V34.402Z" fill="#999999"/>
<path d="M433.558 35.6627H429.442V36.6083H433.558V35.6627Z" fill="#999999"/>
<path d="M433.558 37.2387H429.442V38.4994H433.558V37.2387Z" fill="#999999"/>
<path d="M433.558 39.1298H429.442V40.7058H433.558V39.1298Z" fill="#999999"/>
<path d="M433.558 41.3361H429.442V42.9121H433.558V41.3361Z" fill="#999999"/>
<path d="M433.558 43.5424H429.442V45.1184H433.558V43.5424Z" fill="#999999"/>
<path d="M433.558 45.7488H429.442V47.3247H433.558V45.7488Z" fill="#999999"/>
<path d="M433.558 47.9551H429.442V49.531H433.558V47.9551Z" fill="#999999"/>
<path d="M433.558 50.1614H429.442V51.7374H433.558V50.1614Z" fill="#999999"/>
<path d="M433.558 52.3677H429.442V53.9437H433.558V52.3677Z" fill="#999999"/>
<path d="M433.558 54.5741H429.442V56.15H433.558V54.5741Z" fill="#999999"/>
<path d="M414.85 44.488H418.966V44.8032H414.85V44.488Z" fill="#999999"/>
<path d="M414.85 45.4336H418.966V46.064H414.85V45.4336Z" fill="#999999"/>
<path d="M414.85 46.6943H418.966V47.6399H414.85V46.6943Z" fill="#999999"/>
<path d="M414.85 48.2703H418.966V49.531H414.85V48.2703Z" fill="#999999"/>
<path d="M414.85 50.1614H418.966V51.7374H414.85V50.1614Z" fill="#999999"/>
<path d="M414.85 52.3677H418.966V53.9437H414.85V52.3677Z" fill="#999999"/>
<path d="M414.85 54.5741H418.966V56.15H414.85V54.5741Z" fill="#999999"/>
<path d="M428.694 42.2817H424.578V42.5969H428.694V42.2817Z" fill="#999999"/>
<path d="M428.694 43.2272H424.578V43.8576H428.694V43.2272Z" fill="#999999"/>
<path d="M428.694 44.488H424.578V45.4336H428.694V44.488Z" fill="#999999"/>
<path d="M428.694 46.064H424.578V47.3247H428.694V46.064Z" fill="#999999"/>
<path d="M428.694 47.9551H424.578V49.531H428.694V47.9551Z" fill="#999999"/>
<path d="M428.694 50.1614H424.578V51.7374H428.694V50.1614Z" fill="#999999"/>
<path d="M428.694 52.3677H424.578V53.9437H428.694V52.3677Z" fill="#999999"/>
<path d="M428.694 54.5741H424.578V56.15H428.694V54.5741Z" fill="#999999"/>
<path d="M423.83 40.0754H419.714V40.3906H423.83V40.0754Z" fill="#999999"/>
<path d="M423.83 41.0209H419.714V41.6513H423.83V41.0209Z" fill="#999999"/>
<path d="M423.83 42.2817H419.714V43.2273H423.83V42.2817Z" fill="#999999"/>
<path d="M423.83 43.8576H419.714V45.1184H423.83V43.8576Z" fill="#999999"/>
<path d="M423.83 45.7488H419.714V47.3247H423.83V45.7488Z" fill="#999999"/>
<path d="M423.83 47.9551H419.714V49.531H423.83V47.9551Z" fill="#999999"/>
<path d="M423.83 50.1614H419.714V51.7374H423.83V50.1614Z" fill="#999999"/>
<path d="M423.83 52.3677H419.714V53.9437H423.83V52.3677Z" fill="#999999"/>
<path d="M423.83 54.5741H419.714V56.15H423.83V54.5741Z" fill="#999999"/>
<path d="M434.306 37.869H438.422V38.1842H434.306V37.869Z" fill="#999999"/>
<path d="M434.306 38.8146H438.422V39.445H434.306V38.8146Z" fill="#999999"/>
<path d="M434.306 40.0754H438.422V41.0209H434.306V40.0754Z" fill="#999999"/>
<path d="M434.306 41.6513H438.422V42.9121H434.306V41.6513Z" fill="#999999"/>
<path d="M434.306 43.5424H438.422V45.1184H434.306V43.5424Z" fill="#999999"/>
<path d="M434.306 45.7488H438.422V47.3247H434.306V45.7488Z" fill="#999999"/>
<path d="M434.306 47.9551H438.422V49.531H434.306V47.9551Z" fill="#999999"/>
<path d="M434.306 50.1614H438.422V51.7374H434.306V50.1614Z" fill="#999999"/>
<path d="M434.306 52.3677H438.422V53.9437H434.306V52.3677Z" fill="#999999"/>
<path d="M434.306 54.5741H438.422V56.15H434.306V54.5741Z" fill="#999999"/>
<path d="M443.286 42.2817H439.17V42.5969H443.286V42.2817Z" fill="#999999"/>
<path d="M443.286 43.2272H439.17V43.8576H443.286V43.2272Z" fill="#999999"/>
<path d="M443.286 44.488H439.17V45.4336H443.286V44.488Z" fill="#999999"/>
<path d="M443.286 46.064H439.17V47.3247H443.286V46.064Z" fill="#999999"/>
<path d="M443.286 47.9551H439.17V49.531H443.286V47.9551Z" fill="#999999"/>
<path d="M443.286 50.1614H439.17V51.7374H443.286V50.1614Z" fill="#999999"/>
<path d="M443.286 52.3677H439.17V53.9437H443.286V52.3677Z" fill="#999999"/>
<path d="M443.286 54.5741H439.17V56.15H443.286V54.5741Z" fill="#999999"/>
<path d="M448.15 40.0754H444.034V40.3906H448.15V40.0754Z" fill="#999999"/>
<path d="M448.15 41.0209H444.034V41.6513H448.15V41.0209Z" fill="#999999"/>
<path d="M448.15 42.2817H444.034V43.2273H448.15V42.2817Z" fill="#999999"/>
<path d="M448.15 43.8576H444.034V45.1184H448.15V43.8576Z" fill="#999999"/>
<path d="M448.15 45.7488H444.034V47.3247H448.15V45.7488Z" fill="#999999"/>
<path d="M448.15 47.9551H444.034V49.531H448.15V47.9551Z" fill="#999999"/>
<path d="M448.15 50.1614H444.034V51.7374H448.15V50.1614Z" fill="#999999"/>
<path d="M448.15 52.3677H444.034V53.9437H448.15V52.3677Z" fill="#999999"/>
<path d="M448.15 54.5741H444.034V56.15H448.15V54.5741Z" fill="#999999"/>
</svg>
